<?xml version="1.0" standalone="no"?>
<!DOCTYPE svg PUBLIC "-//W3C//DTD SVG 20010904//EN"
 "http://www.w3.org/TR/2001/REC-SVG-20010904/DTD/svg10.dtd">
<svg version="1.0" xmlns="http://www.w3.org/2000/svg"
 width="324.000000pt" height="320.000000pt" viewBox="0 0 324.000000 320.000000"
 preserveAspectRatio="xMidYMid meet">

<g transform="translate(0.000000,320.000000) scale(0.100000,-0.100000)"
fill="#000000" stroke="none">
<path d="M1712 3124 c-164 -82 -199 -289 -70 -410 132 -125 334 -90 413 72 28
56 27 165 -2 220 -26 48 -92 110 -139 130 -55 23 -142 18 -202 -12z"/>
<path d="M859 2984 c-59 -18 -131 -81 -159 -140 -32 -66 -30 -160 4 -219 97
-164 307 -190 433 -52 121 132 77 324 -92 403 -57 27 -117 30 -186 8z"/>
<path d="M2554 2791 c-119 -30 -207 -161 -189 -279 18 -121 123 -213 243 -213
148 -1 255 104 256 251 0 71 -13 106 -66 165 -57 66 -160 98 -244 76z"/>
<path d="M244 2466 c-114 -38 -187 -111 -208 -213 -27 -122 78 -262 219 -294
96 -21 223 29 280 111 36 53 58 126 50 175 -22 147 -205 265 -341 221z"/>
<path d="M1455 2409 c-252 -30 -473 -135 -640 -305 -363 -369 -326 -920 82
-1245 155 -123 288 -180 533 -228 76 -15 48 -66 -138 -250 -109 -109 -141
-160 -142 -223 0 -110 82 -142 255 -98 123 31 340 155 615 349 319 226 500
476 562 779 21 104 22 117 10 278 -13 193 -35 294 -89 403 -183 369 -613 591
-1048 540z"/>
<path d="M2912 2125 c-85 -37 -128 -94 -139 -185 -11 -97 73 -207 174 -226
128 -24 254 79 255 209 1 150 -156 260 -290 202z"/>
</g>
</svg>
